<svg xmlns="http://www.w3.org/2000/svg" width="50" height="50" fill="none"><path fill="#0B7373" d="m13.283 13.584.14-.161a1.44 1.44 0 0 1 1.874-.14l.16.14L25 22.963l9.542-9.542a1.44 1.44 0 0 1 1.874-.138l.161.14a1.44 1.44 0 0 1 .14 1.874l-.14.16L27.037 25l9.542 9.542a1.44 1.44 0 0 1 .139 1.874l-.14.161a1.44 1.44 0 0 1-1.875.14l-.16-.14L25 27.037l-9.542 9.542a1.44 1.44 0 0 1-1.874.139l-.161-.14a1.44 1.44 0 0 1-.14-1.875l.14-.16L22.963 25l-9.542-9.542a1.44 1.44 0 0 1-.138-1.874Z"/><rect width="48" height="48" x="1" y="1" stroke="#0B7373" stroke-width="2" rx="24"/></svg>