<svg width="24" height="24" viewBox="0 0 24 24" fill="none" xmlns="http://www.w3.org/2000/svg">
<path d="M0.857178 21.4284V2.57122C0.857178 2.11656 1.03779 1.68053 1.35928 1.35904C1.68077 1.03755 2.11681 0.856934 2.57146 0.856934H21.4286C21.8833 0.856934 22.3193 1.03755 22.6408 1.35904C22.9623 1.68053 23.1429 2.11656 23.1429 2.57122V21.4284C23.1429 21.883 22.9623 22.3191 22.6408 22.6405C22.3193 22.962 21.8833 23.1426 21.4286 23.1426H16.2857V15.0169H17.5029C17.7802 15.0169 18.0462 14.9068 18.2423 14.7107C18.4384 14.5145 18.5486 14.2486 18.5486 13.9712V12.6512C18.5486 12.3739 18.4384 12.1079 18.2423 11.9118C18.0462 11.7157 17.7802 11.6055 17.5029 11.6055H16.3543V9.99408C16.3543 8.55408 17.0057 8.55408 17.6572 8.55408H18.4972C18.6351 8.55976 18.7727 8.53507 18.9001 8.48175C19.0274 8.42843 19.1415 8.34778 19.2343 8.2455C19.3339 8.15066 19.4128 8.03618 19.4659 7.9093C19.519 7.78242 19.5452 7.64589 19.5429 7.50836V6.23979C19.5475 6.1002 19.5245 5.96107 19.4753 5.83036C19.426 5.69966 19.3515 5.57993 19.256 5.47804C19.1605 5.37614 19.0458 5.29408 18.9185 5.23653C18.7913 5.17898 18.6539 5.14708 18.5143 5.14265H16.5429C15.9677 5.12102 15.3946 5.22452 14.8633 5.446C14.3319 5.66748 13.855 6.00166 13.4655 6.42545C13.0759 6.84925 12.783 7.35255 12.6069 7.90061C12.4309 8.44867 12.3759 9.02841 12.4457 9.59979V11.6055H11.3486C11.2098 11.6032 11.072 11.6286 10.9432 11.6801C10.8143 11.7317 10.697 11.8083 10.5981 11.9057C10.4991 12.003 10.4206 12.119 10.367 12.247C10.3133 12.375 10.2857 12.5124 10.2857 12.6512V13.9712C10.2857 14.11 10.3133 14.2474 10.367 14.3754C10.4206 14.5034 10.4991 14.6194 10.5981 14.7168C10.697 14.8141 10.8143 14.8908 10.9432 14.9423C11.072 14.9938 11.2098 15.0192 11.3486 15.0169H12.4457V23.1426H2.57146C2.11681 23.1426 1.68077 22.962 1.35928 22.6405C1.03779 22.3191 0.857178 21.883 0.857178 21.4284Z" stroke="white" stroke-linecap="round" stroke-linejoin="round"/>
</svg>
