<svg width="128" height="128" viewBox="0 0 128 128" fill="none" xmlns="http://www.w3.org/2000/svg">
<path d="M92.22 83L91.16 87L90.39 89.88L89.75 92.27C89.7021 92.444 89.642 92.6145 89.57 92.78C89.3597 93.2802 89.0433 93.7288 88.6428 94.0948C88.2422 94.4608 87.767 94.7355 87.25 94.9C86.9592 94.9991 86.6566 95.0597 86.35 95.08C85.5136 95.1269 84.6859 94.8909 84 94.41C83.9 94.35 83.8 94.27 83.7 94.2L83.15 93.75L82.46 93.19L81.63 92.51L80.11 91.28L76.31 88.2L75.74 88.66L78.52 94.83L78.92 95.73L79.55 97.13L79.71 97.48L80.5 99.24L80.59 99.44L88.12 116.18L93.4 104.18C93.5967 103.76 93.9402 103.427 94.3656 103.243C94.7911 103.058 95.2692 103.036 95.71 103.18L108.2 107.18L98.63 85.91L97.74 83.91L97.46 83.28L96 83.22L92.22 83Z" fill="#179999"/>
<path d="M84.8504 71.8601C86.0846 71.8601 87.2683 71.3705 88.142 70.4987C89.0156 69.6269 89.5077 68.4442 89.5104 67.21V62.55C89.5085 61.5362 89.1752 60.5507 88.5614 59.7438C87.9476 58.9368 87.0869 58.3526 86.1104 58.0801C85.7015 57.9587 85.2769 57.8981 84.8504 57.9001H80.3904C80.1413 57.9001 79.8948 57.8508 79.6648 57.7552C79.4348 57.6596 79.226 57.5195 79.0504 57.3429C78.8748 57.1664 78.7358 56.9569 78.6414 56.7264C78.547 56.4959 78.4991 56.2491 78.5004 56V50.5401C78.5027 50.0309 78.3606 49.5316 78.0904 49.1C77.8473 48.7029 77.5063 48.3748 77.1001 48.1472C76.6939 47.9196 76.236 47.8 75.7704 47.8H74.6504V71.8601H84.8504Z" fill="#FAF9F5"/>
<path d="M70.8706 57.9H65.8906V71.86H70.8706V57.9Z" fill="#179999"/>
<path d="M50.8395 83.53C50.209 83.5651 49.5796 83.4438 49.0074 83.1769C48.4351 82.91 47.9377 82.5057 47.5595 82C47.1845 81.488 46.9448 80.8896 46.8626 80.2603C46.7804 79.631 46.8585 78.9911 47.0895 78.4L50.5195 69.51L42.5195 64.32C41.9892 63.9737 41.5536 63.5007 41.2521 62.9437C40.9506 62.3867 40.7927 61.7634 40.7927 61.13C40.7927 60.4967 40.9506 59.8733 41.2521 59.3163C41.5536 58.7594 41.9892 58.2863 42.5195 57.94L50.5195 52.77L47.0995 43.86C46.8716 43.2683 46.7955 42.6289 46.878 42.0002C46.9604 41.3716 47.1989 40.7735 47.5717 40.2606C47.9445 39.7476 48.4397 39.3361 49.0122 39.0636C49.5847 38.791 50.2163 38.666 50.8495 38.7L60.3495 39.22L62.8195 30C62.9797 29.3861 63.2912 28.822 63.7254 28.3594C64.1596 27.8967 64.7028 27.5501 65.3053 27.3512C65.9079 27.1524 66.5506 27.1076 67.1749 27.2209C67.7993 27.3342 68.3853 27.6021 68.8795 28L76.2695 34L77.4895 35.47L76.2895 34L78.9095 31.87L67.3595 23.62C66.4041 22.9368 65.259 22.5695 64.0845 22.5695C62.91 22.5695 61.7648 22.9368 60.8095 23.62L33.4295 43.18C32.7062 43.695 32.1153 44.374 31.7051 45.1614C31.2949 45.9488 31.0771 46.8222 31.0695 47.71L30.7795 80.12C30.772 81.037 30.9875 81.942 31.4073 82.7572C31.8271 83.5725 32.4387 84.2735 33.1895 84.8L46.4995 94.07L51.2495 83.51L50.8395 83.53Z" fill="#FAF9F5"/>
<path d="M66.4904 95.05C65.6539 95.048 64.8414 94.7708 64.1781 94.2611C63.5149 93.7515 63.0377 93.0377 62.8204 92.23L60.3604 83L55.4904 83.26L49.6504 96.26L60.8104 104C61.7605 104.668 62.8938 105.027 64.0554 105.027C65.217 105.027 66.3503 104.668 67.3004 104L75.7604 98L72.6904 91.16L68.8804 94.2C68.2054 94.7502 67.3612 95.0504 66.4904 95.05Z" fill="#179999"/>
<path d="M83.6395 32.9299L82.1095 34.1599L79.5695 36.2199L78.6795 36.9399C77.9981 37.4844 77.1517 37.7806 76.2795 37.7799C75.4111 37.7768 74.569 37.4808 73.8895 36.9399L66.4995 30.9399L63.9995 40.1399C63.7789 40.9855 63.2758 41.7302 62.5737 42.2504C61.8716 42.7706 61.0127 43.0351 60.1395 42.9999L50.6295 42.4899L53.9995 51.3599C54.3079 52.1735 54.3293 53.068 54.0601 53.8954C53.791 54.7227 53.2475 55.4335 52.5195 55.9099L44.5195 61.0799L52.5195 66.2899C53.2489 66.7652 53.7936 67.4758 54.0628 68.3036C54.3321 69.1315 54.3098 70.0266 53.9995 70.8399L50.5795 79.7299L52.9995 79.6099L57.2395 79.3899L60.1395 79.2399C61.0078 79.2008 61.8634 79.4588 62.5652 79.9715C63.2669 80.4842 63.7729 81.2209 63.9995 82.0599L66.4495 91.2599L71.0495 87.5299L72.5695 86.3099L73.8695 85.3099L74.0995 85.1399C74.7334 84.6996 75.4877 84.4657 76.2595 84.4699C77.1317 84.4693 77.9781 84.7655 78.6595 85.3099L81.6595 87.7699L83.2095 88.9999L84.7295 90.2299L85.6295 90.9599L86.0695 91.3199L86.2895 90.4899L88.5495 82.1099C88.7749 81.2682 89.2819 80.5292 89.9862 80.016C90.6904 79.5028 91.5492 79.2466 92.4195 79.2899L95.7095 79.4699L97.0595 79.5399H97.8295L98.9495 79.5999L99.9495 79.6599H100.83L101.92 79.7199L100.83 76.8799L98.9995 71.9999L98.5695 70.8699C98.2468 70.0583 98.2127 69.1604 98.473 68.3266C98.7334 67.4928 99.2723 66.7738 99.9995 66.2899L100.84 65.7399L108 61.1199L100.84 56.4599L99.9995 55.9099C99.2702 55.4347 98.7255 54.7241 98.4562 53.8962C98.187 53.0684 98.2093 52.1733 98.5195 51.3599L98.9995 50.2399L100.7 45.8499L102 42.4699L99.3595 42.5999L96.9995 42.7199L94.2595 42.8599L92.3895 42.9599C91.5189 43.0052 90.6591 42.7496 89.9545 42.2362C89.2498 41.7227 88.7432 40.9826 88.5195 40.1399L88.0595 38.4299L87.2995 35.5599L86.5395 32.6999L86.0695 30.9399L85.1395 31.6999L83.6395 32.9299ZM87.2895 75.2799C86.498 75.5177 85.676 75.6389 84.8495 75.6399H63.9995C63.4983 75.6399 63.0175 75.4408 62.6631 75.0864C62.3087 74.7319 62.1095 74.2512 62.1095 73.7499V55.9999C62.1148 55.5022 62.3162 55.0266 62.6701 54.6764C63.024 54.3263 63.5017 54.1299 63.9995 54.1299H70.8695V45.9099C70.8649 45.8902 70.8649 45.8697 70.8695 45.8499C70.8748 45.5149 70.9705 45.1875 71.1466 44.9023C71.3226 44.6171 71.5724 44.3848 71.8695 44.2299C72.1399 44.0951 72.4374 44.0233 72.7395 44.0199H75.7395C76.7403 44.0191 77.7278 44.2498 78.6246 44.6939C79.5215 45.138 80.3035 45.7835 80.9095 46.5799C81.422 47.2434 81.7992 48.0011 82.0195 48.8099L82.1395 49.2999C82.2122 49.7093 82.249 50.1242 82.2495 50.5399V54.1299H84.8195C85.3664 54.1289 85.9121 54.1791 86.4495 54.2799C87.3187 54.4519 88.1555 54.7589 88.9295 55.1899C89.8039 55.6845 90.5856 56.3274 91.2395 57.0899C92.4244 58.4643 93.1268 60.1888 93.2395 61.9999C93.2495 62.1831 93.2495 62.3667 93.2395 62.5499V67.2099C93.239 67.8121 93.1719 68.4125 93.0395 68.9999C92.7185 70.4679 92.0118 71.8236 90.9923 72.9275C89.9728 74.0314 88.6773 74.8434 87.2395 75.2799H87.2895Z" fill="#D6B66B"/>
<path d="M113.371 109.47L101.701 83.5299C102.334 83.5648 102.966 83.4402 103.538 83.1677C104.111 82.8951 104.606 82.4833 104.978 81.9698C105.35 81.4564 105.587 80.8578 105.668 80.2289C105.749 79.5999 105.671 78.9608 105.441 78.3699L102.021 69.4599L110.021 64.2899C110.551 63.9436 110.987 63.4705 111.288 62.9136C111.589 62.3566 111.747 61.7332 111.747 61.0999C111.747 60.4665 111.589 59.8432 111.288 59.2862C110.987 58.7292 110.551 58.2562 110.021 57.9099L102.021 52.7199L105.441 43.8299C105.673 43.2396 105.753 42.6002 105.672 41.9709C105.592 41.3416 105.354 40.7428 104.981 40.2299C104.606 39.7181 104.111 39.3075 103.538 39.0351C102.965 38.7628 102.334 38.6373 101.701 38.6699L95.3906 38.9999L91.3906 36.1499L89.7506 29.9999C89.5897 29.3862 89.276 28.8232 88.8389 28.3634C88.4018 27.9035 87.8554 27.5617 87.2506 27.3699C86.6478 27.1733 86.0053 27.1307 85.3817 27.246C84.7582 27.3613 84.1734 27.6307 83.6806 28.0299L82.0006 29.3999L69.6006 20.5499C68.0052 19.4083 66.0925 18.7944 64.1306 18.7944C62.1688 18.7944 60.2561 19.4083 58.6606 20.5499L31.2306 40.0999C30.0242 40.9646 29.0387 42.1017 28.3541 43.4187C27.6696 44.7357 27.3052 46.1956 27.2906 47.6799L27.0006 80.0899C26.9827 81.6187 27.3376 83.1289 28.0346 84.4897C28.7315 85.8505 29.7496 87.021 31.0006 87.8999L44.8906 97.5799L46.4706 98.6799L48.0506 99.7699L58.6106 107.14C60.2062 108.251 62.1061 108.841 64.0502 108.83C65.9942 108.819 67.8874 108.208 69.4706 107.08L74.6106 103.4L77.3106 101.48L77.4306 101.74L78.4306 104.04L86.3306 121.6C86.479 121.932 86.7202 122.215 87.0254 122.414C87.3305 122.612 87.6865 122.719 88.0506 122.72C88.4153 122.715 88.7711 122.607 89.0758 122.406C89.3806 122.206 89.6217 121.923 89.7706 121.59L96.0706 107.24L110.991 112.04C111.338 112.15 111.71 112.158 112.061 112.062C112.413 111.967 112.73 111.771 112.973 111.499C113.216 111.228 113.375 110.892 113.431 110.532C113.488 110.172 113.439 109.803 113.291 109.47H113.371ZM82.1106 34.1599L83.6406 32.9299L85.1706 31.6999L86.1006 30.9399L86.5706 32.6999L87.3306 35.5599L88.0906 38.4299L88.5506 40.1399C88.7666 40.99 89.2699 41.7392 89.9753 42.2605C90.6806 42.7818 91.5446 43.043 92.4206 42.9999L94.2906 42.8999L97.0006 42.7199L99.2806 42.5999L101.921 42.4699L100.621 45.8499L99.0006 50.2399L98.5706 51.3599C98.2556 52.1678 98.2256 53.059 98.4856 53.8863C98.7456 54.7136 99.2801 55.4274 100.001 55.9099L100.841 56.4599L108.001 61.1199L100.841 65.7399L100.001 66.2899C99.2713 66.7651 98.7266 67.4758 98.4574 68.3036C98.1881 69.1314 98.2104 70.0265 98.5206 70.8399L99.0006 71.9999L100.891 76.9399L101.981 79.7799L100.891 79.7199H100.011L99.0107 79.6599L97.8906 79.5999H97.1207L95.7706 79.5299L92.4807 79.3499C91.6104 79.3065 90.7515 79.5628 90.0473 80.0759C89.343 80.5891 88.836 81.3282 88.6106 82.1699L86.3506 90.5499L86.1306 91.3799L85.6906 91.0199L84.7906 90.2899L83.2106 88.9999L81.7006 87.7199L78.7006 85.2599C78.0193 84.7155 77.1728 84.4192 76.3006 84.4199C75.5289 84.4156 74.7745 84.6496 74.1406 85.0899L73.9106 85.2599L72.6106 86.2599L71.0906 87.4799L66.4906 91.2099L64.0006 82.0599C63.7733 81.2174 63.2643 80.4781 62.5584 79.965C61.8525 79.4519 60.9922 79.196 60.1206 79.2399L57.2206 79.3899L53.0006 79.6099L50.6206 79.7299L54.0006 70.8399C54.3109 70.0265 54.3332 69.1314 54.0639 68.3036C53.7947 67.4758 53.25 66.7651 52.5206 66.2899L44.5206 61.0799L52.5206 55.9099C53.2486 55.4334 53.7921 54.7227 54.0612 53.8953C54.3304 53.0679 54.309 52.1735 54.0006 51.3599L50.5906 42.4499L60.1006 42.9599C60.9752 43.0066 61.8392 42.7521 62.5489 42.239C63.2586 41.7258 63.7709 40.985 64.0006 40.1399L66.4806 30.9299L73.8706 36.9299C74.5501 37.4708 75.3922 37.7667 76.2606 37.7699C77.1328 37.7706 77.9793 37.4743 78.6606 36.9299L79.5506 36.2099L82.1106 34.1599ZM46.5006 94.0699L33.1906 84.7999C32.4399 84.2734 31.8283 83.5723 31.4085 82.7571C30.9887 81.9419 30.7732 81.0368 30.7806 80.1199L31.0706 47.7099C31.0782 46.8221 31.2961 45.9487 31.7063 45.1613C32.1165 44.3739 32.7074 43.6949 33.4306 43.1799L60.8106 23.6199C61.766 22.9367 62.9111 22.5693 64.0856 22.5693C65.2602 22.5693 66.4053 22.9367 67.3606 23.6199L78.9106 31.8699L76.2906 33.9999L77.4906 35.4699L76.2706 33.9999L68.8806 27.9999C68.3864 27.6019 67.8004 27.3341 67.1761 27.2208C66.5518 27.1074 65.909 27.1523 65.3065 27.3511C64.704 27.55 64.1608 27.8966 63.7266 28.3592C63.2924 28.8219 62.9809 29.3859 62.8206 29.9999L60.3406 39.2199L50.8406 38.6999C50.2075 38.6659 49.5759 38.7909 49.0033 39.0634C48.4308 39.336 47.9356 39.7475 47.5629 40.2604C47.1901 40.7734 46.9516 41.3714 46.8691 42.0001C46.7866 42.6288 46.8628 43.2682 47.0906 43.8599L50.5106 52.7699L42.5106 57.9399C41.9804 58.2862 41.5448 58.7592 41.2433 59.3162C40.9418 59.8732 40.7839 60.4965 40.7839 61.1299C40.7839 61.7632 40.9418 62.3866 41.2433 62.9436C41.5448 63.5005 41.9804 63.9736 42.5106 64.3199L50.5106 69.5099L47.0806 78.3999C46.8496 78.991 46.7716 79.6309 46.8538 80.2602C46.9359 80.8895 47.1756 81.4879 47.5506 81.9999C47.9256 82.511 48.4215 82.9212 48.994 83.1934C49.5664 83.4657 50.1975 83.5916 50.8306 83.5599H51.2406L46.5006 94.0699ZM67.3006 104C66.3506 104.668 65.2173 105.027 64.0556 105.027C62.894 105.027 61.7607 104.668 60.8106 104L49.6506 96.2699L55.4906 83.2699L60.3606 82.9999L62.8206 92.1999C62.9786 92.8154 63.2889 93.3813 63.7228 93.8456C64.1567 94.3098 64.7004 94.6575 65.3038 94.8567C65.9073 95.0559 66.5511 95.1001 67.1762 94.9853C67.8012 94.8705 68.3873 94.6004 68.8806 94.1999L72.6906 91.1199L75.7606 97.9999L67.3006 104ZM95.6907 103.12C95.2499 102.976 94.7718 102.998 94.3463 103.182C93.9208 103.367 93.5774 103.7 93.3806 104.12L88.1006 116.12L80.5706 99.4399L80.4806 99.2399L79.6906 97.4799L79.5306 97.1299L78.9006 95.7299L78.5006 94.8299L75.7206 88.6599L76.2906 88.1999L80.0906 91.2799L81.6106 92.5099L82.4406 93.1899L83.1306 93.7499L83.6806 94.1999C83.7806 94.2699 83.8806 94.3499 83.9806 94.4099C84.6771 94.881 85.5122 95.103 86.3506 95.0399C86.6572 95.0195 86.9598 94.959 87.2506 94.8599C87.7677 94.6954 88.2429 94.4207 88.6434 94.0546C89.044 93.6886 89.3603 93.2401 89.5706 92.7399C89.6426 92.5743 89.7028 92.4039 89.7506 92.2299L90.3906 89.8399L91.1607 86.9999L92.2206 82.9999L95.9506 83.2099L97.4606 83.2899L97.7406 83.9199L98.6306 85.9199L108.181 107.15L95.6907 103.12Z" fill="#0B7373"/>
<path d="M72.7594 44C72.4572 44.0034 72.1598 44.0752 71.8894 44.21C71.5922 44.3649 71.3424 44.5972 71.1664 44.8824C70.9904 45.1675 70.8947 45.4949 70.8894 45.83C70.8847 45.8497 70.8847 45.8703 70.8894 45.89V54.11H63.9994C63.4981 54.11 63.0174 54.3091 62.6629 54.6636C62.3085 55.018 62.1094 55.4987 62.1094 56V73.75C62.1094 74.2513 62.3085 74.732 62.6629 75.0864C63.0174 75.4409 63.4981 75.64 63.9994 75.64H84.8494C85.6759 75.639 86.4978 75.5177 87.2894 75.28C88.7272 74.8435 90.0226 74.0314 91.0421 72.9276C92.0616 71.8237 92.7683 70.4679 93.0894 69C93.2217 68.4125 93.2888 67.8122 93.2894 67.21V62.55C93.2993 62.3668 93.2993 62.1832 93.2894 62C93.1767 60.1889 92.4743 58.4644 91.2894 57.09C90.6414 56.3293 89.8666 55.6865 88.9994 55.19C88.2253 54.759 87.3885 54.4519 86.5194 54.28C85.9819 54.1792 85.4362 54.129 84.8894 54.13H82.2794V50.54C82.2788 50.1243 82.242 49.7093 82.1694 49.3L82.0494 48.81C81.829 48.0011 81.4519 47.2435 80.9394 46.58C80.3354 45.7799 79.5543 45.1305 78.6573 44.6829C77.7603 44.2353 76.7718 44.0015 75.7694 44H72.7594ZM70.8694 71.86H65.8694V57.86H70.8694V71.86ZM78.0894 49.1C78.3596 49.5315 78.5017 50.0309 78.4994 50.54V56C78.4994 56.5013 78.6985 56.982 79.0529 57.3364C79.4074 57.6909 79.8881 57.89 80.3894 57.89H84.8494C85.2759 57.888 85.7004 57.9487 86.1094 58.07C87.0859 58.3425 87.9466 58.9268 88.5604 59.7337C89.1742 60.5407 89.5074 61.5261 89.5094 62.54V67.2C89.5067 68.4342 89.0146 69.6169 88.141 70.4887C87.2673 71.3604 86.0836 71.85 84.8494 71.85H74.6494V47.8H75.7694C76.235 47.8 76.6929 47.9195 77.0991 48.1471C77.5053 48.3748 77.8463 48.7028 78.0894 49.1Z" fill="#0B7373"/>
</svg>
