<svg width="96" height="92" viewBox="0 0 96 92" fill="none" xmlns="http://www.w3.org/2000/svg">
<path d="M80.3409 7.15995L66.3409 19.38L42.8509 2.58995C41.2239 1.42408 39.2725 0.797119 37.2709 0.797119C35.2693 0.797119 33.318 1.42408 31.6909 2.58995L4.31092 22.1399C2.88303 23.1493 1.76178 24.5336 1.07092 26.1399C0.687053 27.0204 0.440843 27.9547 0.340922 28.91C0.340922 29.2199 0.290923 29.53 0.290923 29.84V31.9199V36.7V38.59V40.4799L0.230922 47.2799V49.1999V51.0899L0.000921971 62.2799C-0.0208574 63.849 0.34353 65.3993 1.06199 66.7944C1.78045 68.1895 2.83094 69.3865 4.12092 70.28L11.7909 75.6299L13.6709 76.94L15.5609 78.2599L31.7209 89.53C33.3524 90.6551 35.2902 91.2518 37.2719 91.2393C39.2537 91.2267 41.1838 90.6056 42.8009 89.4599L44.3709 88.34L46.2609 87L48.1509 85.6499L70.1509 69.91C71.3888 69.0159 72.3969 67.8409 73.0922 66.4814C73.7876 65.122 74.1504 63.6169 74.1509 62.0899V39.61L92.7109 19.61C94.2418 17.9358 95.0688 15.7361 95.02 13.4681C94.9711 11.2 94.0503 9.03798 92.4487 7.43127C90.8471 5.82456 88.6881 4.89674 86.4202 4.84063C84.1523 4.78451 81.95 5.60442 80.2709 7.12995L80.3409 7.15995ZM34.1009 5.99995C35.0251 5.33728 36.1337 4.98089 37.2709 4.98089C38.4081 4.98089 39.5167 5.33728 40.4409 5.99995L63.1609 22.1899L48.1609 35.32V31.38C48.1622 30.5426 47.9984 29.7132 47.6789 28.9392C47.3594 28.1652 46.8904 27.4618 46.2987 26.8692C45.7071 26.2766 45.0044 25.8065 44.2309 25.4858C43.4574 25.165 42.6283 24.9999 41.7909 25H7.43092L34.1009 5.99995ZM44.3709 68.31C37.9009 71 29.5409 71.09 25.7009 69.59C25.4326 69.4863 25.1977 69.3114 25.0214 69.0841C24.8452 68.8568 24.7344 68.5856 24.7009 68.3C24.6598 68.0099 24.6986 67.7142 24.8132 67.4446C24.9277 67.175 25.1136 66.9417 25.3509 66.7699L29.2609 63.91C30.3479 63.1176 31.2088 62.0546 31.7578 60.8266C32.3069 59.5987 32.5252 58.2484 32.3909 56.91C32.1768 54.905 32.5229 52.8799 33.3909 51.0599C33.7007 50.3902 34.083 49.7564 34.5309 49.1699C34.8371 48.7576 35.1712 48.3666 35.5309 48C35.7809 47.75 36.0509 47.5099 36.3209 47.2799C38.2774 45.6668 40.7351 44.7863 43.2709 44.79C43.6409 44.79 44.0109 44.79 44.3709 44.79H44.5009C45.0963 44.8521 45.6852 44.9658 46.2609 45.13L46.4709 45.1899C46.8109 45.2906 47.1448 45.4108 47.4709 45.5499C47.7009 45.6399 47.9309 45.75 48.1509 45.86C48.3428 45.95 48.5297 46.0501 48.7109 46.16C49.5536 46.6673 50.3239 47.2863 51.0009 48C51.689 48.6785 52.2751 49.4532 52.7409 50.3C53.1322 50.9973 53.4282 51.7439 53.6209 52.5199C53.7951 53.1737 53.899 53.8442 53.9309 54.5199C54.0264 57.8455 52.9345 61.0963 50.8509 63.69C50.0797 64.6738 49.1624 65.5337 48.1309 66.2399C47.5293 66.6741 46.8977 67.065 46.2409 67.41C45.6332 67.7414 45.0091 68.0417 44.3709 68.31ZM4.44092 29.91C4.44735 29.574 4.48417 29.2393 4.55092 28.91C4.94611 28.8324 5.34821 28.7955 5.75092 28.7999H41.7509C42.4344 28.8026 43.0891 29.0753 43.5723 29.5585C44.0556 30.0418 44.3283 30.6965 44.3309 31.38V41.08C43.9709 41.08 43.6009 41.08 43.2309 41.08C41.297 41.0747 39.3812 41.4528 37.5944 42.1926C35.8075 42.9324 34.1851 44.0192 32.8209 45.3899C32.2177 46.0109 31.6659 46.6797 31.1709 47.3899H15.5609V40.59H38.1409V36.7299H4.38092L4.44092 29.91ZM4.35092 40.5099H11.7909V47.3099H4.29092L4.35092 40.5099ZM6.49092 66.83C5.7639 66.3255 5.17144 65.6508 4.76528 64.8646C4.35913 64.0784 4.15163 63.2048 4.16092 62.32L4.25092 51.0899H11.7909V70.5199L6.49092 66.83ZM40.3809 86C39.4625 86.6491 38.3656 86.9977 37.2409 86.9977C36.1163 86.9977 35.0193 86.6491 34.1009 86L15.5609 73.16V51.0899H29.3009C28.6317 53.1011 28.4032 55.2327 28.6309 57.3399C28.691 58.018 28.572 58.6999 28.286 59.3176C28 59.9353 27.5568 60.4671 27.0009 60.86L23.1009 63.73C22.3329 64.3131 21.7338 65.0899 21.3648 65.9807C20.9958 66.8716 20.8702 67.8446 21.0009 68.8C21.1205 69.7573 21.4982 70.6642 22.0936 71.4234C22.689 72.1826 23.4797 72.7656 24.3809 73.11C26.9957 74.0031 29.7488 74.423 32.5109 74.3499C34.7277 74.346 36.9397 74.1452 39.1209 73.75C40.923 73.4339 42.6957 72.969 44.4209 72.36V83.19L40.3809 86ZM70.0609 62C70.0612 62.8666 69.8545 63.7207 69.4579 64.4913C69.0613 65.2619 68.4864 65.9265 67.7809 66.4299L48.1509 80.4299V70.6799C50.3518 69.5274 52.292 67.9344 53.8509 66C56.322 62.9584 57.7053 59.1781 57.7809 55.26C57.7809 54.96 57.7809 54.66 57.7809 54.37C60.0153 53.9053 62.0475 52.7511 63.5909 51.07L70.0909 44.07L70.0609 62ZM90.0609 17L74.2709 34L72.1409 36.2999L70.0609 38.54L60.8009 48.54C59.7831 49.6254 58.4567 50.3723 57.0009 50.68C56.3156 48.6708 55.1761 46.8468 53.6709 45.3499C52.1728 43.8443 50.364 42.684 48.3709 41.95C48.6897 40.5373 49.4288 39.2544 50.4909 38.27L66.3209 24.45L67.9209 23.0499L69.5309 21.6399L82.8509 9.99995C83.7885 9.0518 85.0643 8.51492 86.3976 8.50742C87.731 8.49992 89.0128 9.02241 89.9609 9.95995C90.9091 10.8975 91.446 12.1733 91.4535 13.5067C91.461 14.84 90.9385 16.1218 90.0009 17.07L90.0609 17Z" fill="#0B7373"/>
</svg>
