<svg width="128" height="128" viewBox="0 0 128 128" fill="none" xmlns="http://www.w3.org/2000/svg">
<path d="M52.7695 98.8101L60.7695 104.42C61.7196 105.088 62.8529 105.447 64.0145 105.447C65.1762 105.447 66.3094 105.088 67.2595 104.42L94.6995 84.8201L94.9995 84.5801H68.1495C64.2669 84.5855 60.5286 86.0527 57.6787 88.6895C54.8288 91.3263 53.0761 94.9395 52.7695 98.8101Z" fill="#FAF9F5"/>
<path d="M63.6208 51.0899C64.1331 51.0921 64.6277 50.9024 65.0071 50.5581C65.3865 50.2139 65.6233 49.74 65.6708 49.2299L67.2308 33.6499C62.7617 34.916 58.6674 37.2497 55.3008 40.4499L61.9108 50.1899C62.1005 50.4683 62.3556 50.6959 62.6537 50.8528C62.9518 51.0098 63.2839 51.0912 63.6208 51.0899Z" fill="#179999"/>
<path d="M84.7297 49.2299C84.7674 49.6532 84.9344 50.0545 85.2081 50.3796C85.4818 50.7046 85.8489 50.9375 86.2595 51.0467C86.6701 51.1559 87.1044 51.1361 87.5034 50.99C87.9024 50.8439 88.2467 50.5785 88.4897 50.2299L93.5597 42.7599L94.6297 41.1999L95.1097 40.4899C92.1808 37.7032 88.6941 35.5696 84.8797 34.2299C84.3297 34.0299 83.7597 33.8499 83.1797 33.6899L83.3597 35.4599L84.7297 49.2299Z" fill="#179999"/>
<path d="M54.72 36C58.4997 32.9594 62.9101 30.8002 67.63 29.68L68.14 24.57L67.36 24C66.4046 23.3168 65.2595 22.9495 64.085 22.9495C62.9104 22.9495 61.7653 23.3168 60.81 24L49.58 32L53.17 37.3C53.67 36.86 54.19 36.42 54.72 36Z" fill="#FAF9F5"/>
<path d="M39.0595 69.72C39.0616 68.4637 39.4628 67.2404 40.2051 66.2268C40.9473 65.2131 41.9924 64.4614 43.1895 64.08C42.9508 60.07 42.2973 56.0954 41.2395 52.22L37.9995 40.29L33.4295 43.55C32.7066 44.0677 32.1162 44.7487 31.7061 45.5376C31.296 46.3265 31.0779 47.201 31.0695 48.09L30.7795 80.5C30.772 81.417 30.9875 82.322 31.4073 83.1373C31.8271 83.9525 32.4387 84.6535 33.1895 85.18L49.2895 96.39C50.1346 92.0061 52.4788 88.0528 55.9199 85.2083C59.3611 82.3638 63.6848 80.8052 68.1495 80.8H96.9995C97.0094 80.6102 97.0094 80.4199 96.9995 80.23V75.65H44.9995C43.4258 75.65 41.9165 75.0256 40.8028 73.9138C39.6891 72.802 39.0621 71.2937 39.0595 69.72Z" fill="#FAF9F5"/>
<path d="M105.41 67.5701H78.6796L76.5396 69.7101C76.1813 70.0605 75.7007 70.2577 75.1996 70.2601C74.9527 70.2603 74.7081 70.2118 74.4799 70.1174C74.2517 70.023 74.0443 69.8846 73.8696 69.7101L71.7596 67.6001H44.9996C44.4294 67.6001 43.8825 67.8266 43.4793 68.2298C43.0761 68.633 42.8496 69.1799 42.8496 69.7501C42.8575 70.3151 43.0875 70.8543 43.4898 71.251C43.8922 71.6478 44.4346 71.8702 44.9996 71.8701H105.42C105.991 71.8701 106.539 71.6439 106.943 71.241C107.348 70.8381 107.577 70.2912 107.58 69.7201C107.579 69.1773 107.372 68.6551 107 68.2601C106.797 68.041 106.551 67.8666 106.277 67.7478C106.003 67.629 105.708 67.5685 105.41 67.5701Z" fill="#D6B66B"/>
<path d="M104.869 32.81L99.8691 40.09L98.7691 41.71L98.5991 42L97.7391 43.27L97.4891 43.63L96.3391 45.33L91.6191 52.33C91.5456 52.4414 91.4655 52.5483 91.3791 52.65C90.7048 53.5179 89.7954 54.1739 88.7591 54.54C87.4683 55.0161 86.05 55.0161 84.7591 54.54C83.7239 54.1719 82.8151 53.5163 82.1391 52.65C81.4642 51.7823 81.0451 50.7432 80.9291 49.65L79.2891 32.83V32.5L79.1291 30.9L78.9991 30L78.8991 29L78.7491 27.51L78.1791 21.79C78.1791 20.9944 77.8631 20.2313 77.3005 19.6687C76.7379 19.1061 75.9748 18.79 75.1791 18.79C74.3835 18.79 73.6204 19.1061 73.0578 19.6687C72.4952 20.2313 72.1791 20.9944 72.1791 21.79L72.0791 22.79L71.8591 24.95L71.6391 27.12L71.4891 29L71.3091 30.91L71.1091 32.84L69.4391 49.6C69.3192 50.694 68.8967 51.7329 68.2191 52.6C67.4618 53.5687 66.4176 54.2731 65.2358 54.6126C64.054 54.952 62.7951 54.9091 61.6391 54.49C60.6021 54.13 59.6872 53.4855 58.9991 52.63L58.7591 52.31L52.6491 43.31L51.5691 41.72L50.4691 40.1L46.4691 34.23L45.4691 32.82L45.3691 32.67C44.988 32.1493 44.5254 31.6934 43.9991 31.32C43.0109 30.6211 41.8296 30.2472 40.6191 30.25H39.1191L40.1191 34.06L40.6491 36.06L41.1791 38L44.4691 50.13L44.7891 51.29C44.9891 52.04 45.1791 52.8 45.3591 53.56C45.4391 53.9 45.5091 54.24 45.5791 54.56C45.7191 55.19 45.8491 55.82 45.9591 56.45C46.4588 58.8726 46.8061 61.3241 46.9991 63.79H67.9991L65.8391 61.63C65.662 61.4546 65.5214 61.2459 65.4253 61.016C65.3292 60.786 65.2795 60.5393 65.2791 60.29C65.2754 59.8102 65.4583 59.3476 65.7891 59L68.3291 56.45L72.1091 52.67L73.8691 50.91C74.2248 50.5589 74.7044 50.362 75.2041 50.362C75.7039 50.362 76.1835 50.5589 76.5391 50.91L84.6191 59C84.7954 59.1748 84.9353 59.3828 85.0308 59.6119C85.1263 59.841 85.1754 60.0868 85.1754 60.335C85.1754 60.5833 85.1263 60.829 85.0308 61.0582C84.9353 61.2873 84.7954 61.4953 84.6191 61.67L82.4591 63.83H103.459C103.611 61.3547 103.908 58.8905 104.349 56.45C104.469 55.82 104.589 55.19 104.729 54.56C104.799 54.22 104.879 53.88 104.959 53.56C105.129 52.8 105.319 52.04 105.529 51.29L105.839 50.13L111.229 30.3H109.719C108.767 30.2907 107.828 30.5145 106.982 30.952C106.137 31.3896 105.411 32.0275 104.869 32.81Z" fill="#D6B66B"/>
<path d="M80.6091 60.2899L76.7291 56.4099L75.1991 54.8799L73.6691 56.4099L69.7891 60.2899L75.1991 65.6999L80.6091 60.2899Z" fill="#179999"/>
<path d="M113.691 26.46H109.691C108.113 26.4537 106.559 26.8353 105.164 27.5711C103.769 28.307 102.576 29.3747 101.691 30.68L97.1806 37.32C96.6806 36.86 96.1806 36.42 95.6406 35.99C91.8597 32.9513 87.4497 30.7924 82.7306 29.67L82.0006 21.4C81.8323 19.8229 81.1164 18.3548 79.9775 17.251C78.8386 16.1472 77.3488 15.4776 75.7673 15.3587C74.1857 15.2398 72.6125 15.6791 71.3214 16.6002C70.0303 17.5213 69.1029 18.8658 68.7006 20.4C67.1492 19.5438 65.3876 19.1431 63.6185 19.2439C61.8494 19.3448 60.1447 19.9431 58.7006 20.97L47.2506 29C45.4687 27.3429 43.124 26.4243 40.6906 26.43H36.6906C36.399 26.4292 36.1112 26.4955 35.8493 26.6238C35.5875 26.7522 35.3587 26.939 35.1806 27.17C35.0078 27.4019 34.8894 27.6697 34.834 27.9536C34.7786 28.2374 34.7877 28.5301 34.8606 28.81L37.0006 36.39L31.2806 40.48C30.0736 41.3442 29.0877 42.4811 28.4031 43.7982C27.7184 45.1154 27.3544 46.5756 27.3406 48.06L27.0006 80.47C26.9827 81.9988 27.3376 83.5089 28.0346 84.8698C28.7315 86.2306 29.7496 87.4011 31.0006 88.28L48.9106 100.76L50.8006 102.08L52.6906 103.39L58.6106 107.52C60.2089 108.624 62.1077 109.21 64.0501 109.199C65.9925 109.188 67.8846 108.581 69.4706 107.46L96.9007 87.89C97.174 87.69 97.434 87.48 97.6806 87.26C98.4341 86.596 99.0727 85.8121 99.5706 84.94C100.234 83.8066 100.65 82.5456 100.791 81.24C100.791 80.9 100.791 80.57 100.791 80.24V75.65H105.361C106.78 75.6603 108.155 75.1607 109.236 74.2421C110.318 73.3234 111.033 72.047 111.253 70.6451C111.472 69.2433 111.18 67.8093 110.431 66.6043C109.682 65.3993 108.525 64.5035 107.171 64.08C107.411 60.0708 108.061 56.0967 109.111 52.22L115.461 28.84C115.538 28.5602 115.549 28.2664 115.494 27.9815C115.439 27.6967 115.318 27.4285 115.142 27.198C114.965 26.9674 114.738 26.7809 114.478 26.6528C114.217 26.5248 113.931 26.4588 113.641 26.46H113.691ZM84.8706 34.19C88.685 35.5296 92.1718 37.6633 95.1006 40.45L94.6207 41.16L93.5507 42.72L88.4806 50.19C88.2377 50.5386 87.8933 50.8039 87.4943 50.95C87.0954 51.0962 86.6611 51.116 86.2504 51.0067C85.8398 50.8975 85.4727 50.6646 85.1991 50.3396C84.9254 50.0146 84.7584 49.6132 84.7206 49.19L83.3506 35.42L83.1706 33.65C83.7506 33.81 84.3206 34 84.8706 34.19ZM60.8106 24C61.766 23.3168 62.9111 22.9494 64.0856 22.9494C65.2602 22.9494 66.4053 23.3168 67.3606 24L68.1406 24.56L67.6306 29.67C62.9099 30.7932 58.4994 32.9557 54.7206 36C54.1906 36.43 53.7206 36.87 53.1706 37.33L49.5806 32L60.8106 24ZM67.2306 33.65L65.6706 49.23C65.6329 49.6532 65.4659 50.0546 65.1922 50.3796C64.9185 50.7046 64.5515 50.9375 64.1409 51.0467C63.7302 51.156 63.2959 51.1362 62.897 50.99C62.498 50.8439 62.1536 50.5786 61.9106 50.23L55.3006 40.45C58.6673 37.2497 62.7615 34.916 67.2306 33.65ZM94.7006 84.82L67.3006 104.38C66.3506 105.048 65.2173 105.407 64.0556 105.407C62.894 105.407 61.7607 105.048 60.8106 104.38L52.8106 98.77C53.1262 94.9135 54.8773 91.3158 57.7178 88.6882C60.5583 86.0607 64.2813 84.5946 68.1506 84.58H95.0006L94.7006 84.82ZM97.0606 80.23C97.0706 80.4199 97.0706 80.6101 97.0606 80.8H68.1506C63.686 80.8052 59.3623 82.3637 55.9211 85.2082C52.4799 88.0528 50.1357 92.006 49.2906 96.39L33.1906 85.18C32.4399 84.6535 31.8283 83.9524 31.4085 83.1372C30.9887 82.322 30.7732 81.4169 30.7806 80.5L31.0706 48.09C31.0791 47.2009 31.2972 46.3264 31.7073 45.5375C32.1173 44.7486 32.7078 44.0677 33.4306 43.55L38.0006 40.29L41.2406 52.22C42.2985 56.0954 42.952 60.0699 43.1906 64.08C41.8364 64.5035 40.6793 65.3993 39.9301 66.6043C39.1809 67.8093 38.8894 69.2433 39.1087 70.6451C39.328 72.047 40.0436 73.3234 41.125 74.2421C42.2064 75.1607 43.5818 75.6603 45.0006 75.65H97.0606V80.23ZM107.571 69.72C107.568 70.2911 107.339 70.838 106.934 71.2409C106.53 71.6438 105.982 71.87 105.411 71.87H45.0006C44.5824 71.8703 44.1731 71.7486 43.823 71.5199C43.4728 71.2911 43.197 70.9652 43.0293 70.582C42.8616 70.1989 42.8093 69.7751 42.8788 69.3627C42.9483 68.9502 43.1366 68.567 43.4206 68.26C43.6233 68.0436 43.8679 67.8708 44.1395 67.7521C44.4112 67.6335 44.7042 67.5715 45.0006 67.57H71.7306L73.8406 69.68C74.0153 69.8545 74.2227 69.9929 74.4509 70.0873C74.6791 70.1817 74.9237 70.2302 75.1706 70.23C75.6718 70.2276 76.1523 70.0303 76.5106 69.68L78.6506 67.54H105.381C105.677 67.5397 105.971 67.6009 106.243 67.7197C106.515 67.8384 106.759 68.0122 106.961 68.23C107.351 68.6277 107.57 69.1626 107.571 69.72ZM69.7906 60.29L73.6806 56.41L75.2006 54.88L76.7306 56.41L80.6106 60.29L75.2006 65.7L69.7906 60.29ZM105.791 50.07L105.481 51.23C105.271 51.98 105.081 52.74 104.911 53.5C104.831 53.84 104.751 54.18 104.681 54.5C104.541 55.13 104.421 55.76 104.301 56.39C103.86 58.8304 103.562 61.2947 103.411 63.77H82.4106L84.5706 61.61C84.7469 61.4352 84.8868 61.2272 84.9823 60.9981C85.0778 60.769 85.1269 60.5232 85.1269 60.275C85.1269 60.0268 85.0778 59.781 84.9823 59.5518C84.8868 59.3227 84.7469 59.1148 84.5706 58.94L76.4906 50.85C76.135 50.4988 75.6554 50.3019 75.1556 50.3019C74.6559 50.3019 74.1763 50.4988 73.8206 50.85L72.0606 52.61L68.2806 56.39L65.7906 59C65.613 59.1728 65.4718 59.3797 65.3756 59.6081C65.2794 59.8366 65.2301 60.0821 65.2306 60.33C65.231 60.5792 65.2807 60.8259 65.3768 61.0559C65.4729 61.2859 65.6136 61.4946 65.7906 61.67L68.0006 63.79H47.0006C46.8588 61.3138 46.5616 58.8489 46.1106 56.41C46.0006 55.78 45.8706 55.15 45.7306 54.52C45.6606 54.18 45.5906 53.84 45.5106 53.52C45.3306 52.76 45.1406 52 44.9406 51.25L44.6206 50.09L41.2806 37.94L40.7506 36L40.2206 34L39.2206 30.19H40.7206C41.9311 30.1871 43.1124 30.5611 44.1006 31.26C44.6269 31.6334 45.0895 32.0892 45.4706 32.61L45.5706 32.76L46.5706 34.17L50.5706 40.04L51.6706 41.66L52.7506 43.25L58.8606 52.25L59.1006 52.57C59.7793 53.4334 60.6872 54.0884 61.7206 54.46C62.8768 54.8775 64.1352 54.9196 65.3166 54.5803C66.4981 54.2409 67.5423 53.5374 68.3006 52.57C68.9783 51.7028 69.4007 50.6639 69.5206 49.57L71.1906 32.8L71.3906 30.87L71.4906 29L71.6806 27.1L71.9006 24.93L72.1206 22.77L72.2206 21.77C72.2206 20.9743 72.5367 20.2113 73.0993 19.6487C73.6619 19.0861 74.425 18.77 75.2206 18.77C76.0163 18.77 76.7794 19.0861 77.342 19.6487C77.9046 20.2113 78.2206 20.9743 78.2206 21.77L78.7906 27.49L78.9106 29L79.0106 30L79.1006 30.9L79.2606 32.5V32.83L81.0006 49.6C81.1166 50.6932 81.5357 51.7322 82.2106 52.6C82.8866 53.4662 83.7954 54.1218 84.8306 54.49C86.1215 54.966 87.5398 54.966 88.8306 54.49C89.8669 54.1238 90.7763 53.4678 91.4506 52.6C91.537 52.4982 91.6171 52.3914 91.6907 52.28L96.4107 45.28L97.5606 43.58L97.8106 43.22L98.6006 42L98.8206 41.68L99.9206 40.06L104.921 32.78C105.455 31.9877 106.176 31.339 107.02 30.8909C107.864 30.4427 108.805 30.2089 109.761 30.21H111.271L105.791 50.07Z" fill="#0B7373"/>
</svg>
